<mxfile host="app.diagrams.net" modified="2023-11-24T05:47:46.368Z" agent="Mozilla/5.0 (Macintosh; Intel Mac OS X 10_15_7) AppleWebKit/537.36 (KHTML, like Gecko) Chrome/119.0.0.0 Safari/537.36" etag="iTqfqEN2n9MRNlW3SPOC" version="22.1.3" type="github">
  <diagram name="Page-1" id="2pDJMrnjvmodRHbMjU3U">
    <mxGraphModel dx="1024" dy="546" grid="1" gridSize="10" guides="1" tooltips="1" connect="1" arrows="1" fold="1" page="1" pageScale="1" pageWidth="850" pageHeight="1100" math="0" shadow="0">
      <root>
        <mxCell id="0" />
        <mxCell id="1" parent="0" />
        <mxCell id="_JCsfICxKdZBbKCJ_87l-12" value="" style="rounded=0;whiteSpace=wrap;html=1;" vertex="1" parent="1">
          <mxGeometry x="290" y="340" width="100" height="60" as="geometry" />
        </mxCell>
        <mxCell id="_JCsfICxKdZBbKCJ_87l-5" value="" style="rounded=0;whiteSpace=wrap;html=1;" vertex="1" parent="1">
          <mxGeometry x="440" y="280" width="250" height="120" as="geometry" />
        </mxCell>
        <mxCell id="_JCsfICxKdZBbKCJ_87l-1" value="application&amp;nbsp; &amp;nbsp; &amp;nbsp; &amp;nbsp; &amp;nbsp; &amp;nbsp; &amp;nbsp; &amp;nbsp; &amp;nbsp; &amp;nbsp; &amp;nbsp; &amp;nbsp; &amp;nbsp;" style="rounded=0;whiteSpace=wrap;html=1;" vertex="1" parent="1">
          <mxGeometry x="80" y="280" width="160" height="120" as="geometry" />
        </mxCell>
        <mxCell id="_JCsfICxKdZBbKCJ_87l-2" value="" style="shape=image;verticalLabelPosition=bottom;labelBackgroundColor=default;verticalAlign=top;aspect=fixed;imageAspect=0;image=https://static-00.iconduck.com/assets.00/prometheus-icon-511x512-1vmxbcxr.png;" vertex="1" parent="1">
          <mxGeometry x="610" y="299.2" width="70.66" height="70.8" as="geometry" />
        </mxCell>
        <mxCell id="_JCsfICxKdZBbKCJ_87l-8" style="edgeStyle=orthogonalEdgeStyle;rounded=0;orthogonalLoop=1;jettySize=auto;html=1;exitX=1;exitY=0.5;exitDx=0;exitDy=0;entryX=0;entryY=0.25;entryDx=0;entryDy=0;" edge="1" parent="1" source="_JCsfICxKdZBbKCJ_87l-3" target="_JCsfICxKdZBbKCJ_87l-7">
          <mxGeometry relative="1" as="geometry">
            <Array as="points">
              <mxPoint x="410" y="310" />
              <mxPoint x="410" y="315" />
              <mxPoint x="450" y="315" />
            </Array>
          </mxGeometry>
        </mxCell>
        <mxCell id="_JCsfICxKdZBbKCJ_87l-3" value="otel sdk" style="rounded=0;whiteSpace=wrap;html=1;" vertex="1" parent="1">
          <mxGeometry x="160" y="289.4" width="70" height="40.6" as="geometry" />
        </mxCell>
        <mxCell id="_JCsfICxKdZBbKCJ_87l-13" style="edgeStyle=orthogonalEdgeStyle;rounded=0;orthogonalLoop=1;jettySize=auto;html=1;exitX=1;exitY=0.5;exitDx=0;exitDy=0;" edge="1" parent="1" source="_JCsfICxKdZBbKCJ_87l-4" target="_JCsfICxKdZBbKCJ_87l-12">
          <mxGeometry relative="1" as="geometry" />
        </mxCell>
        <mxCell id="_JCsfICxKdZBbKCJ_87l-4" value="prometheus sdk" style="rounded=0;whiteSpace=wrap;html=1;" vertex="1" parent="1">
          <mxGeometry x="160" y="350" width="70" height="40.6" as="geometry" />
        </mxCell>
        <mxCell id="_JCsfICxKdZBbKCJ_87l-6" value="prometheus" style="text;html=1;strokeColor=none;fillColor=none;align=center;verticalAlign=middle;whiteSpace=wrap;rounded=0;" vertex="1" parent="1">
          <mxGeometry x="610.44" y="370" width="60" height="30" as="geometry" />
        </mxCell>
        <mxCell id="_JCsfICxKdZBbKCJ_87l-21" style="edgeStyle=orthogonalEdgeStyle;rounded=0;orthogonalLoop=1;jettySize=auto;html=1;exitX=1;exitY=0.5;exitDx=0;exitDy=0;entryX=0;entryY=0.5;entryDx=0;entryDy=0;" edge="1" parent="1" source="_JCsfICxKdZBbKCJ_87l-7" target="_JCsfICxKdZBbKCJ_87l-20">
          <mxGeometry relative="1" as="geometry" />
        </mxCell>
        <mxCell id="_JCsfICxKdZBbKCJ_87l-7" value="otlp receiver" style="rounded=0;whiteSpace=wrap;html=1;" vertex="1" parent="1">
          <mxGeometry x="450" y="289.4" width="50" height="100.6" as="geometry" />
        </mxCell>
        <mxCell id="_JCsfICxKdZBbKCJ_87l-11" value="" style="shape=image;verticalLabelPosition=bottom;labelBackgroundColor=default;verticalAlign=top;aspect=fixed;imageAspect=0;image=https://coralogix.com/wp-content/uploads/2022/02/opentelemetry-icon-color-1.png;" vertex="1" parent="1">
          <mxGeometry x="325" y="350" width="30" height="30" as="geometry" />
        </mxCell>
        <mxCell id="_JCsfICxKdZBbKCJ_87l-14" style="edgeStyle=orthogonalEdgeStyle;rounded=0;orthogonalLoop=1;jettySize=auto;html=1;exitX=1;exitY=0.5;exitDx=0;exitDy=0;entryX=0;entryY=0.75;entryDx=0;entryDy=0;" edge="1" parent="1" source="_JCsfICxKdZBbKCJ_87l-12" target="_JCsfICxKdZBbKCJ_87l-7">
          <mxGeometry relative="1" as="geometry">
            <Array as="points">
              <mxPoint x="410" y="370" />
              <mxPoint x="410" y="365" />
            </Array>
          </mxGeometry>
        </mxCell>
        <mxCell id="_JCsfICxKdZBbKCJ_87l-16" value="OTEL Collector&lt;br&gt;" style="text;html=1;strokeColor=none;fillColor=none;align=center;verticalAlign=middle;whiteSpace=wrap;rounded=0;" vertex="1" parent="1">
          <mxGeometry x="295" y="376" width="90" height="30" as="geometry" />
        </mxCell>
        <mxCell id="_JCsfICxKdZBbKCJ_87l-25" style="edgeStyle=orthogonalEdgeStyle;rounded=0;orthogonalLoop=1;jettySize=auto;html=1;exitX=0.5;exitY=0;exitDx=0;exitDy=0;exitPerimeter=0;entryX=0.5;entryY=1;entryDx=0;entryDy=0;" edge="1" parent="1" source="_JCsfICxKdZBbKCJ_87l-18" target="_JCsfICxKdZBbKCJ_87l-5">
          <mxGeometry relative="1" as="geometry" />
        </mxCell>
        <mxCell id="_JCsfICxKdZBbKCJ_87l-18" value="&lt;font style=&quot;font-size: 9px;&quot;&gt;otlp:&lt;br&gt;&amp;nbsp; mapped_resource_attributes:&lt;br&gt;&amp;nbsp; - service.instance.id&lt;/font&gt;" style="shape=note;whiteSpace=wrap;html=1;backgroundOutline=1;darkOpacity=0.05;size=6;align=left;" vertex="1" parent="1">
          <mxGeometry x="495" y="420" width="140" height="60" as="geometry" />
        </mxCell>
        <mxCell id="_JCsfICxKdZBbKCJ_87l-20" value="add mapped&lt;br&gt;labels" style="rounded=0;whiteSpace=wrap;html=1;" vertex="1" parent="1">
          <mxGeometry x="515" y="309.7" width="85" height="60" as="geometry" />
        </mxCell>
        <mxCell id="_JCsfICxKdZBbKCJ_87l-23" value="mapping happens&lt;br&gt;on prometheus side" style="shape=callout;whiteSpace=wrap;html=1;perimeter=calloutPerimeter;base=10;size=40;position=0.5;position2=0.67;" vertex="1" parent="1">
          <mxGeometry x="480" y="228.89999999999998" width="120" height="80.8" as="geometry" />
        </mxCell>
      </root>
    </mxGraphModel>
  </diagram>
</mxfile>
